<?xml version="1.0" encoding="UTF-8"?>
<svg width="170px" height="39px" viewBox="0 0 170 39" version="1.1" xmlns="http://www.w3.org/2000/svg" xmlns:xlink="http://www.w3.org/1999/xlink">
    <!-- Generator: Sketch 54.1 (76490) - https://sketchapp.com -->
    <title>talkdrop</title>
    <desc>Created with Sketch.</desc>
    <g id="Page-1" stroke="none" stroke-width="1" fill="none" fill-rule="evenodd">
        <g id="talkdrop-copy" transform="translate(-379.000000, -7236.000000)" fill-rule="nonzero">
            <g id="Group-5" transform="translate(1.000000, 7151.000000)">
                <g id="nav-copy" transform="translate(375.000000, 83.000000)">
                    <g id="talkdrop">
                        <ellipse id="Oval" fill="#EBE25B" transform="translate(16.654734, 9.195292) rotate(-23.890000) translate(-16.654734, -9.195292) " cx="16.6547342" cy="9.19529247" rx="6.89905115" ry="6.8379164"></ellipse>
                        <ellipse id="Oval" fill="#CD3256" transform="translate(13.078678, 29.093111) rotate(-23.890000) translate(-13.078678, -29.093111) " cx="13.0786781" cy="29.0931108" rx="9.80280285" ry="9.71481602"></ellipse>
                        <ellipse id="Oval" fill="#00AFE5" transform="translate(33.888117, 20.563486) rotate(-23.890000) translate(-33.888117, -20.563486) " cx="33.8881169" cy="20.5634856" rx="8.44599729" ry="8.37257574"></ellipse>
                        <path d="M173,24.4281722 C173,30.7987434 169.86348,33.8554125 165.052008,33.8554125 C162.170172,33.8554125 159.946845,32.8241633 158.627533,30.4673532 L158.627533,41 L155.073423,41 L155,15.2210863 L158.645889,15.2210863 L158.645889,18.3889913 C159.958317,16.0321812 162.181644,14.9638533 165.070363,15.0009319 C169.86348,15.0380106 173,18.057601 173,24.4281722 Z M169.427533,24.4281722 C169.427533,20.1200995 167.348757,17.9092865 164.104398,17.8722079 C161.185851,17.8351293 158.634417,19.4943977 158.634417,24.4281722 C158.634417,29.3619467 161.185851,30.9818191 164.104398,30.9818191 C167.348757,30.9818191 169.427533,28.7362449 169.427533,24.4281722 Z" id="Shape" fill="#FFFFFF"></path>
                        <path d="M143.998849,34 C139.164471,34 135,30.9197932 135,24.5001659 C135,18.0805386 139.171377,14.9629677 143.998849,15.0003318 C148.826321,15.037696 153,18.0805386 153,24.5001659 C153,30.9197932 148.828623,34 143.998849,34 Z M143.998849,18.0805386 C141.036066,18.0431745 138.473846,19.9720985 138.473846,24.5001659 C138.473846,29.0282333 141.033764,30.9197932 143.998849,30.9197932 C146.963934,30.9197932 149.523852,29.0258981 149.523852,24.5001659 C149.523852,19.9744338 146.963934,18.1179028 143.998849,18.0805386 L143.998849,18.0805386 Z" id="Shape" fill="#FFFFFF"></path>
                        <path d="M135,18.2918577 C130.755746,18.2918577 128.689343,20.1638369 128.689343,27.0042137 L128.689343,34 L125,34 L125,15.2990457 L128.689343,15.2990457 L128.689343,18.7416037 C129.87114,16.1231875 131.900395,15 134.925702,15 L135,15 L135,18.2918577 Z" id="Path" fill="#FFFFFF"></path>
                        <path d="M105.961364,33.9649375 L101.614773,33.9649375 L95.1383523,25.8281039 L92.8370739,28.1656028 L92.8370739,33.995325 L89,33.995325 L89,8 L92.8370739,8 L92.8370739,23.6752675 L100.784091,15.4285714 L105.389062,15.4285714 L97.5627841,23.3760676 L105.961364,33.9649375 Z M105.961364,33.9649375 L106,33.9649375 L106,34 L105.961364,33.9649375 Z" id="Shape" fill="#FFFFFF"></path>
                        <polygon id="Path" fill="#FFFFFF" points="58.812357 11.3052234 58.812357 34 55.2173913 34 55.2173913 11.3052234 47 11.3052234 47 8 67 8 67 11.3052234"></polygon>
                        <polygon id="Path" fill="#FFFFFF" points="87 34 83 34 83 8 87 8"></polygon>
                        <path d="M81,22.300073 L81,33.7344491 L77.1237392,33.7344491 L77.1237392,30.5324487 C74.054127,35.9706923 64,34.8150656 64,28.4462259 C64,19.841143 77.1237392,24.759003 77.1237392,21.2569616 C77.1237392,18.9925895 74.8994175,18.0549613 72.8272482,18.0549613 C70.9072311,18.0549613 68.7215514,18.4651736 68.2216224,21.4093262 L64.7680068,20.7740831 C65.4200881,16.3789508 69.1031397,14.9654763 72.8272482,15.0006374 C76.932945,15.0357984 81,16.7118088 81,22.300073 Z M77.1237392,25.689599 L77.1237392,24.0135886 C74.7086234,25.5770836 68.067055,23.9010732 68.067055,28.4462259 C68.067055,33.1390551 77.1237392,32.9538736 77.1237392,25.689599 Z" id="Shape" fill="#FFFFFF"></path>
                        <path d="M122,33.7775203 L118.357825,33.7775203 L118.357825,30.6118192 C117.046734,32.9687138 114.825672,34 111.939896,34 C107.126448,34 104,30.9432213 104,24.5724218 C104,18.2016222 107.131033,15.1819235 111.939896,15.1448436 C114.818795,15.1077636 117.039857,16.1761298 118.357825,18.5330243 L118.357825,8 L122,8 L122,33.7775203 Z M118.357825,24.5724218 C118.357825,19.636153 115.806698,17.9791425 112.893417,18.0162225 C109.652362,18.0533024 107.575704,20.2641947 107.575704,24.5724218 C107.575704,28.8806489 109.652362,31.1263036 112.893417,31.1263036 C115.79753,31.1263036 118.357825,29.5063731 118.357825,24.5724218 Z" id="Shape" fill="#FFFFFF"></path>
                    </g>
                </g>
            </g>
        </g>
    </g>
</svg>