<?xml version="1.0" encoding="UTF-8"?>
<svg width="142px" height="33px" viewBox="0 0 142 33" version="1.1" xmlns="http://www.w3.org/2000/svg" xmlns:xlink="http://www.w3.org/1999/xlink">
    <!-- Generator: Sketch 54.1 (76490) - https://sketchapp.com -->
    <title>TalkdropWhiteLogo</title>
    <desc>Created with Sketch.</desc>
    <g id="Page-1" stroke="none" stroke-width="1" fill="none" fill-rule="evenodd">
        <g id="iPhone-8" transform="translate(-22.000000, -29.000000)" fill="#FFFFFF" fill-rule="nonzero">
            <g id="header" transform="translate(-406.000000, -1.000000)">
                <g id="TalkdropWhiteLogo" transform="translate(426.000000, 29.000000)">
                    <ellipse id="Oval" transform="translate(13.878945, 7.662744) rotate(-23.890000) translate(-13.878945, -7.662744) " cx="13.8789452" cy="7.66274372" rx="5.74920929" ry="5.69826367"></ellipse>
                    <ellipse id="Oval" transform="translate(10.898898, 24.244259) rotate(-23.890000) translate(-10.898898, -24.244259) " cx="10.8988984" cy="24.244259" rx="8.16900238" ry="8.09568002"></ellipse>
                    <ellipse id="Oval" transform="translate(28.240097, 17.136238) rotate(-23.890000) translate(-28.240097, -17.136238) " cx="28.2400974" cy="17.136238" rx="7.03833107" ry="6.97714645"></ellipse>
                    <path d="M144,19.9776842 C144,25.3681675 141.386233,27.9545798 137.376673,27.9545798 C134.975143,27.9545798 133.122371,27.0819843 132.022945,25.0877604 L132.022945,34 L129.061185,34 L129,12.187073 L132.038241,12.187073 L132.038241,14.867608 C133.131931,12.8733841 134.984704,11.9694143 137.391969,12.0007886 C141.386233,12.0321628 144,14.5872009 144,19.9776842 Z M141.022945,19.9776842 C141.022945,16.3323919 139.290631,14.461704 136.586998,14.4303298 C134.154876,14.3989556 132.028681,15.8029519 132.028681,19.9776842 C132.028681,24.1524164 134.154876,25.5230777 136.586998,25.5230777 C139.290631,25.5230777 141.022945,23.6229765 141.022945,19.9776842 Z" id="Shape"></path>
                    <path d="M120.499041,28 C116.470393,28 113,25.4061417 113,20.0001397 C113,14.5941378 116.476148,11.9688149 120.499041,12.0002795 C124.521934,12.031744 128,14.5941378 128,20.0001397 C128,25.4061417 124.523852,28 120.499041,28 Z M120.499041,14.5941378 C118.030055,14.5626732 115.894871,16.1870303 115.894871,20.0001397 C115.894871,23.8132491 118.028137,25.4061417 120.499041,25.4061417 C122.969945,25.4061417 125.10321,23.8112826 125.10321,20.0001397 C125.10321,16.1889969 122.969945,14.6256023 120.499041,14.5941378 L120.499041,14.5941378 Z" id="Shape"></path>
                    <path d="M112,14.7720907 C108.604597,14.7720907 106.951474,16.3484942 106.951474,22.1088115 L106.951474,28 L104,28 L104,12.251828 L106.951474,12.251828 L106.951474,15.1508241 C107.896912,12.9458421 109.520316,12 111.940562,12 L112,12 L112,14.7720907 Z" id="Path"></path>
                    <path d="M87.9681818,27.9703317 L84.3886364,27.9703317 L79.0551136,21.0853187 L77.1599432,23.0632024 L77.1599432,27.9960442 L74,27.9960442 L74,6 L77.1599432,6 L77.1599432,19.2636879 L83.7045455,12.2857143 L87.496875,12.2857143 L81.0517045,19.0105187 L87.9681818,27.9703317 Z M87.9681818,27.9703317 L88,27.9703317 L88,28 L87.9681818,27.9703317 Z" id="Shape"></path>
                    <polygon id="Path" points="49.0405034 8.7967275 49.0405034 28 45.9847826 28 45.9847826 8.7967275 39 8.7967275 39 6 56 6 56 8.7967275"></polygon>
                    <polygon id="Path" points="72 28 69 28 69 6 72 6"></polygon>
                    <path d="M67,18.1474299 L67,27.7763782 L63.8077852,27.7763782 L63.8077852,25.0799568 C61.2798693,29.6595304 53,28.686371 53,23.3231376 C53,16.076752 63.8077852,20.2181078 63.8077852,17.2690203 C63.8077852,15.3621806 61.9759909,14.572599 60.2694985,14.572599 C58.688308,14.572599 56.8883364,14.9180409 56.4766302,17.3973273 L53.6324762,16.8623857 C54.1694843,13.1612217 57.2025856,11.9709274 60.2694985,12.0005367 C63.6506606,12.030146 67,13.4415232 67,18.1474299 Z M63.8077852,21.0017676 L63.8077852,19.5903904 C61.8188663,20.9070178 56.3493394,19.4956406 56.3493394,23.3231376 C56.3493394,27.2749938 63.8077852,27.1190514 63.8077852,21.0017676 Z" id="Shape"></path>
                    <path d="M102,27.8117479 L98.9648542,27.8117479 L98.9648542,25.1330778 C97.8722781,27.1273732 96.0213931,28 93.6165797,28 C89.6053737,28 87,25.413495 87,20.0228184 C87,14.6321419 89.6091939,12.0770122 93.6165797,12.0456369 C96.0156628,12.0142615 97.8665478,12.9182637 98.9648542,14.9125591 L98.9648542,6 L102,6 L102,27.8117479 Z M98.9648542,20.0228184 C98.9648542,15.8459756 96.8389151,14.4438898 94.4111804,14.4752652 C91.7103018,14.5066405 89.979753,16.3773955 89.979753,20.0228184 C89.979753,23.6682414 91.7103018,25.5684107 94.4111804,25.5684107 C96.8312747,25.5684107 98.9648542,24.1977003 98.9648542,20.0228184 Z" id="Shape"></path>
                </g>
            </g>
        </g>
    </g>
</svg>